<svg width="38" height="31" viewBox="0 0 38 31" fill="none" xmlns="http://www.w3.org/2000/svg">
<path d="M37.2061 5.01867C36.7692 3.12923 35.4816 1.64144 33.8466 1.13645C30.8829 0.21875 19 0.21875 19 0.21875C19 0.21875 7.11706 0.21875 4.15336 1.13645C2.51861 1.64144 1.23084 3.12923 0.793918 5.01867C0 8.44315 0 15.5883 0 15.5883C0 15.5883 0 22.7334 0.793918 26.1575C1.23084 28.047 2.51861 29.5352 4.15336 30.0401C7.11706 30.9574 19 30.9574 19 30.9574C19 30.9574 30.8829 30.9574 33.8466 30.0401C35.4816 29.5352 36.7692 28.047 37.2061 26.1575C37.9999 22.7334 37.9999 15.5883 37.9999 15.5883C37.9999 15.5883 37.9999 8.44315 37.2061 5.01867ZM15.1998 22.1753V9.00132L25.0723 15.5883L15.1998 22.1753Z" fill="white"/>
</svg>
