<svg width="45" height="36" viewBox="0 0 45 36" fill="none" xmlns="http://www.w3.org/2000/svg">
<g clip-path="url(#clip0_474_224)">
<path d="M22.3809 10.9385C16.8253 10.9385 12.2222 14.5076 12.2222 18.9534C12.2222 23.3992 16.746 26.9683 22.3809 26.9683C28.0158 26.9683 32.5396 23.3366 32.5396 18.9534C32.5396 14.5702 27.9365 10.9385 22.3809 10.9385ZM22.3809 24.088C18.8095 24.088 15.873 21.7712 15.873 18.9534C15.873 16.1357 18.8095 13.8188 22.3809 13.8188C25.9523 13.8188 28.8888 16.1357 28.8888 18.9534C28.8888 21.7712 25.9523 24.088 22.3809 24.088Z" fill="white"/>
<path d="M32.9364 12.5663C34.2075 12.5663 35.2379 11.7533 35.2379 10.7505C35.2379 9.74757 34.2075 8.93457 32.9364 8.93457C31.6652 8.93457 30.6348 9.74757 30.6348 10.7505C30.6348 11.7533 31.6652 12.5663 32.9364 12.5663Z" fill="white"/>
<path d="M38.8888 6.05459C36.8253 4.36394 33.8888 3.4873 30.5555 3.4873H14.2063C7.30154 3.4873 2.69836 7.11907 2.69836 12.5667V25.4031C2.69836 28.0957 3.80948 30.4125 6.0317 32.1031C8.17455 33.7312 11.0317 34.5452 14.2857 34.5452H30.4761C33.8888 34.5452 36.746 33.6685 38.8095 32.1031C40.9523 30.4751 42.0634 28.1583 42.0634 25.4658V12.5667C42.0634 9.93682 40.9523 7.68262 38.8888 6.05459ZM38.5714 25.4658C38.5714 27.4069 37.6984 28.9723 36.2698 30.0368C34.8412 31.1013 32.8571 31.6648 30.4761 31.6648H14.2857C11.9047 31.6648 9.92059 31.1013 8.49201 30.0368C7.06344 28.9097 6.34916 27.3443 6.34916 25.4031V12.5667C6.34916 10.6882 7.06344 9.1228 8.49201 7.9957C9.84122 6.93122 11.9047 6.36767 14.2857 6.36767H30.6349C33.0158 6.36767 35 6.93122 36.4285 8.05832C37.7777 9.18542 38.5714 10.7508 38.5714 12.5667V25.4658Z" fill="white"/>
<path d="M278.303 -93.1686C272.416 -113.751 255.068 -129.959 233.038 -135.46C193.106 -145.457 33 -145.457 33 -145.457C33 -145.457 -127.107 -145.457 -167.039 -135.46C-189.065 -129.959 -206.416 -113.751 -212.303 -93.1686C-223 -55.8636 -223 21.9735 -223 21.9735C-223 21.9735 -223 99.8087 -212.303 137.11C-206.416 157.693 -189.065 173.905 -167.039 179.405C-127.107 189.398 33 189.398 33 189.398C33 189.398 193.106 189.398 233.038 179.405C255.068 173.905 272.416 157.693 278.303 137.11C288.999 99.8087 288.999 21.9735 288.999 21.9735C288.999 21.9735 288.999 -55.8636 278.303 -93.1686ZM-18.203 93.7292V-49.7831L114.816 21.9735L-18.203 93.7292Z" fill="black"/>
</g>
<defs>
<clipPath id="clip0_474_224">
<rect width="45" height="35.5037" fill="white" transform="translate(0 0.481445)"/>
</clipPath>
</defs>
</svg>
