<svg width="40" height="33" viewBox="0 0 40 33" fill="none" xmlns="http://www.w3.org/2000/svg">
<path d="M21.2167 15.9168V15.873C21.2054 15.8878 21.1934 15.9026 21.1814 15.9168H21.2167Z" fill="white"/>
<path d="M34.759 2.97754H5.04107C3.61867 2.97754 2.46509 3.89812 2.46509 5.03269V29.612C2.46509 30.746 3.61867 31.6666 5.04107 31.6666H34.759C36.1835 31.6666 37.3371 30.7454 37.3371 29.612V5.03269C37.3371 3.89754 36.1828 2.97754 34.759 2.97754ZM13.035 26.9939H7.76803V14.0395H13.035V26.9939ZM10.4019 12.2698H10.3666C8.59988 12.2698 7.45689 11.2749 7.45689 10.0318C7.45689 8.76115 8.63516 7.79385 10.4364 7.79385C12.2384 7.79385 13.3469 8.76115 13.3821 10.0318C13.3821 11.2749 12.2377 12.2698 10.4019 12.2698ZM32.0278 26.9939H26.7609V20.0619C26.7609 18.3211 25.9989 17.1329 24.0932 17.1329C22.6383 17.1329 21.7719 17.9341 21.3902 18.7081C21.2512 18.9844 21.2173 19.3709 21.2173 19.7585V26.9933H15.9503C15.9503 26.9933 16.0195 15.2531 15.9503 14.0389H21.2173V15.8726C21.9172 14.9901 23.1689 13.7332 25.965 13.7332C29.43 13.7332 32.0285 15.5853 32.0285 19.5647L32.0278 26.9939Z" fill="white"/>
</svg>
