<svg width="30" height="30" viewBox="0 0 30 30" fill="none" xmlns="http://www.w3.org/2000/svg">
<path d="M7.5 0C3.35742 0 0 3.35742 0 7.5C0 11.6426 3.35742 15 7.5 15C11.6426 15 15 11.6426 15 7.5C15 3.35742 11.6426 0 7.5 0ZM7.5 13.5938C4.13965 13.5938 1.40625 10.8601 1.40625 7.5C1.40625 4.13994 4.13965 1.40625 7.5 1.40625C10.8604 1.40625 13.5938 4.13994 13.5938 7.5C13.5938 10.8601 10.8604 13.5938 7.5 13.5938ZM7.47363 5.15625C8.09062 5.15625 8.67246 5.39977 9.10928 5.84121C9.38393 6.11496 9.82793 6.11953 10.1045 5.84579C10.3801 5.57204 10.3819 5.12713 10.1091 4.85057C9.40594 4.141 8.46991 3.75018 7.47381 3.75018C6.4786 3.75018 5.54169 4.141 4.83856 4.85057C3.39012 6.3119 3.39012 8.68846 4.83856 10.1504C5.54169 10.8599 6.4786 11.2508 7.47381 11.2508C8.46991 11.2508 9.40594 10.8599 10.1091 10.1504C10.3819 9.87387 10.3801 9.42909 10.1045 9.15516C9.82799 8.88235 9.38408 8.88507 9.10928 9.15974C8.67246 9.60095 8.09062 9.8447 7.47363 9.8447C6.85576 9.8447 6.27393 9.60118 5.83623 9.15974C4.92979 8.24509 4.92979 6.75652 5.83623 5.8404C6.27539 5.39941 6.85547 5.15625 7.47363 5.15625Z" fill="white"/>
</svg>
