<svg width="40" height="41" viewBox="0 0 40 41" fill="none" xmlns="http://www.w3.org/2000/svg">
<path d="M37.2793 11.1102C36.0016 11.6782 34.6264 12.0613 33.1836 12.2328C34.6568 11.3508 35.7864 9.95382 36.3191 8.2873C34.9411 9.10504 33.4157 9.69841 31.7908 10.0187C30.4905 8.63302 28.637 7.7666 26.586 7.7666C22.6483 7.7666 19.4556 10.9592 19.4556 14.8976C19.4556 15.4557 19.5184 15.9997 19.6405 16.5225C13.7138 16.2248 8.45885 13.3863 4.94166 9.07188C4.32783 10.1246 3.97646 11.3494 3.97646 12.6575C3.97646 15.1312 5.23517 17.3142 7.14863 18.5926C5.98023 18.5552 4.88028 18.2342 3.9186 17.7001C3.9179 17.7297 3.9179 17.7601 3.9179 17.7904C3.9179 21.2448 6.37605 24.1263 9.63853 24.7825C9.04022 24.9447 8.41016 25.0322 7.75964 25.0322C7.29962 25.0322 6.853 24.9878 6.41768 24.9038C7.32573 27.7366 9.95886 29.799 13.0788 29.8561C10.6383 31.7689 7.5642 32.909 4.2227 32.909C3.64767 32.909 3.0797 32.8752 2.52161 32.8088C5.67826 34.8331 9.42616 36.0128 13.4528 36.0128C26.5697 36.0128 33.7417 25.1472 33.7417 15.7238C33.7417 15.4148 33.7353 15.1065 33.7219 14.8003C35.1147 13.797 36.324 12.5404 37.2793 11.1102Z" fill="white"/>
</svg>
