<svg width="51" height="52" viewBox="0 0 51 52" fill="none" xmlns="http://www.w3.org/2000/svg">
<path d="M43.8557 13.2898C42.9512 11.4986 41.9664 9.87737 41.0825 8.72512C39.9724 7.2776 39.1979 6.7732 38.5742 7.09083C38.5732 7.09134 38.5722 7.09118 38.5711 7.0917L35.8422 8.4849C35.3866 8.7177 35.2921 9.35615 35.3945 10.1711L18.159 18.972C17.5786 19.2687 17.6267 20.2465 17.9257 21.3821L8.25332 26.3214C8.25279 26.3217 8.25216 26.3216 8.25162 26.3219C8.25094 26.3222 8.25048 26.3229 8.24968 26.3232L5.21407 27.8734C4.6178 28.1776 4.78577 29.0633 4.99916 29.8007C5.22438 30.5808 5.62533 31.5587 6.1283 32.5542C6.6308 33.5497 7.17968 34.4522 7.6734 35.0955C8.05839 35.5982 8.54332 36.1353 9.03604 36.1353C9.13961 36.1353 9.24371 36.1115 9.34727 36.0586L12.3858 34.5072L12.3859 34.5071L22.0592 29.5677C22.7636 30.4578 23.3149 30.8863 23.7811 30.8863C23.9038 30.8863 24.0203 30.857 24.1326 30.7998L25.0912 30.3104V43.9355C25.0912 44.2286 25.3272 44.4662 25.6189 44.4662H32.126C32.4176 44.4662 32.6537 44.2286 32.6537 43.9355V26.4486L41.35 22.0084C41.8378 22.4876 42.2494 22.7224 42.6096 22.7224C42.7415 22.7224 42.8667 22.6915 42.9863 22.6304L45.7151 21.2369C45.785 21.2012 45.8411 21.1506 45.8869 21.0927C47.094 19.8997 44.4268 14.421 43.8557 13.2898ZM42.9146 13.7702C43.3702 14.6724 43.6629 15.4194 43.8309 15.9597C43.4965 15.5044 43.0692 14.8261 42.6136 13.9241C42.1581 13.0216 41.8654 12.2741 41.6968 11.7339C42.0313 12.1894 42.459 12.8677 42.9146 13.7702ZM9.03293 35.0289C8.71494 34.776 7.94086 33.7995 7.06939 32.0738C6.19788 30.3479 5.87012 29.1433 5.85519 28.7362L7.90182 27.6911C8.0634 28.6407 8.6102 29.9006 9.16693 31.0027C9.6694 31.9982 10.2183 32.9006 10.712 33.544C10.8261 33.6931 10.9499 33.8437 11.0793 33.984L9.03293 35.0289ZM12.0743 33.4759C11.7608 33.2321 10.9861 32.2609 10.108 30.5223C9.22991 28.7836 8.90691 27.5816 8.89636 27.1833L18.2446 22.4097C18.7009 23.7069 19.3301 25.0132 19.651 25.649C20.2256 26.787 20.8395 27.8404 21.4252 28.701L12.0743 33.4759ZM31.5982 43.4049H26.1467V24.9678C26.1467 23.4564 27.3697 22.227 28.8725 22.227C30.3753 22.227 31.5982 23.4564 31.5982 24.9678V43.4049ZM32.6537 25.2582V24.9678C32.6537 22.8713 30.9576 21.1656 28.8725 21.1656C26.7873 21.1656 25.0912 22.8713 25.0912 24.9678V29.1199L23.7595 29.7999C23.3385 29.5708 22.0531 28.061 20.5921 25.1686C19.1315 22.2762 18.6775 20.3414 18.7424 19.8647L35.6111 11.251C36.1423 13.2634 37.3402 15.7173 37.7012 16.4323C38.6062 18.2237 39.591 19.8447 40.4749 20.997C40.527 21.0649 40.5758 21.1236 40.6265 21.1874L32.6537 25.2582ZM42.5848 21.645C42.106 21.4543 40.5038 19.6372 38.6423 15.9519C36.7812 12.2666 36.268 9.89342 36.3968 9.39205L38.0766 8.53456C38.1153 8.95843 38.2212 9.47168 38.4011 10.0942C38.8046 11.4911 39.5256 13.2471 40.43 15.0388C41.335 16.8303 42.3199 18.4515 43.2038 19.6035C43.5978 20.1173 43.9474 20.5054 44.265 20.7869L42.5848 21.645ZM45.1786 20.1753C44.5788 19.7603 43.0847 17.9509 41.3711 14.5584C39.658 11.1651 39.0865 8.88498 39.1076 8.15326C39.4363 8.38057 40.0346 9.02975 40.7893 10.1256C40.3079 10.4519 40.4499 11.2296 40.6398 11.8862C40.8465 12.6003 41.2129 13.4945 41.6726 14.4045C42.4539 15.9519 43.5233 17.6884 44.3875 17.6884C44.4561 17.6884 44.5228 17.6731 44.5887 17.6502C45.0223 18.9072 45.1902 19.7747 45.1786 20.1753Z" fill="white"/>
<path d="M28.8725 23.2097C27.8789 23.2097 27.0708 24.0225 27.0708 25.0214C27.0708 26.0203 27.8789 26.8331 28.8725 26.8331C29.8661 26.8331 30.6742 26.0203 30.6742 25.0214C30.6742 24.0225 29.8661 23.2097 28.8725 23.2097ZM28.8725 25.7718C28.4612 25.7718 28.1262 25.4352 28.1262 25.0214C28.1262 24.6076 28.4612 24.271 28.8725 24.271C29.2838 24.271 29.6187 24.6076 29.6187 25.0214C29.6187 25.4352 29.2838 25.7718 28.8725 25.7718Z" fill="white"/>
</svg>
